<svg width="35" height="15" viewBox="0 0 35 15" fill="none" xmlns="http://www.w3.org/2000/svg">
<path d="M0.911762 7.2215C0.911762 6.87938 1.13972 6.65143 1.48183 6.65143L33.2895 6.65143C33.6317 6.65143 33.8596 6.87939 33.8596 7.2215C33.8596 7.56362 33.6317 7.79157 33.2895 7.79157L1.53863 7.79157C1.19652 7.79157 0.911659 7.56362 0.911659 7.2215L0.911762 7.2215Z" fill="white"/>
<path d="M23.2569 13.8909C23.2569 13.7198 23.371 13.5488 23.5417 13.435L32.8908 7.22148L23.4849 1.06524C23.2001 0.894182 23.1428 0.552065 23.3139 0.267216C23.4849 -0.0176425 23.8271 -0.0749017 24.1119 0.0961564L35 7.22147L24.1128 14.3468C23.828 14.5178 23.4858 14.4609 23.3148 14.1757C23.2575 14.0619 23.2575 14.0047 23.2575 13.8909L23.2569 13.8909Z" fill="white"/>
</svg>
