<svg width="15" height="15" viewBox="0 0 15 15" fill="none" xmlns="http://www.w3.org/2000/svg">
<path d="M15 7.49983C15 11.6422 11.6424 15 7.49983 15C3.35743 15 0 11.6424 0 7.49983C0 3.35743 3.35743 0 7.49983 0C11.6422 0 15 3.35743 15 7.49983V7.49983ZM14.2106 7.49983C14.2106 3.79322 11.2064 0.789367 7.49976 0.789367C3.79312 0.789367 0.789299 3.79339 0.789299 7.49983C0.789299 11.2063 3.79333 14.2106 7.49976 14.2106C11.2062 14.2106 14.2106 11.2065 14.2106 7.49983V7.49983ZM7.89462 7.10518H10.6578C10.8758 7.10518 11.0525 7.28189 11.0525 7.49983C11.0525 7.71791 10.8758 7.89462 10.6578 7.89462H7.49983C7.28189 7.89462 7.10518 7.71791 7.10518 7.49983V2.76295C7.10518 2.54501 7.28189 2.3683 7.49983 2.3683C7.71791 2.3683 7.89462 2.54501 7.89462 2.76295V7.10518Z" fill="#6C6C6C"/>
</svg>
