<svg width="32" height="32" viewBox="0 0 32 32" fill="none" xmlns="http://www.w3.org/2000/svg">
<path d="M26.6979 4.58083C23.7441 1.62657 19.8164 0 15.6394 0C11.4624 0 7.5343 1.62662 4.58082 4.58083C1.62657 7.53463 0 11.4624 0 15.6394C0 19.8164 1.62662 23.7445 4.58082 26.6979C7.53463 29.6522 11.4624 31.2788 15.6394 31.2788C19.8164 31.2788 23.7445 29.6521 26.6979 26.6979C29.6522 23.7441 31.2788 19.8164 31.2788 15.6394C31.2788 11.4624 29.6521 7.5343 26.6979 4.58083ZM28.2214 17.7265C27.3093 20.1228 25.9201 22.2651 24.092 24.0927C22.2636 25.921 20.122 27.3102 17.7258 28.2221C15.4302 29.0954 13.0172 29.4899 10.5538 29.3949C8.98541 28.8159 7.52157 27.9671 6.21934 26.871C6.74241 26.914 7.26744 26.9354 7.79185 26.9354C9.73233 26.9354 11.6717 26.6441 13.5194 26.0669C16.4473 25.1531 19.1487 23.5162 21.3317 21.3334C23.5152 19.15 25.1521 16.449 26.0652 13.5211C26.7981 11.1734 27.0698 8.67713 26.8687 6.22009C27.9648 7.5221 28.8136 8.98616 29.3925 10.5545C29.4891 13.0185 29.0953 15.4313 28.2213 17.7265L28.2214 17.7265ZM1.55098 11.57C3.7817 10.6119 5.78902 9.25103 7.52017 7.52078C9.25103 5.78992 10.6113 3.7826 11.5698 1.5516C12.7542 1.2112 13.9876 1.01932 15.2485 0.986696C14.551 4.51572 12.8412 7.7185 10.28 10.28C7.71867 12.8413 4.516 14.5511 0.98664 15.2485C1.01884 13.9877 1.21072 12.7543 1.55109 11.5699L1.55098 11.57ZM0.994171 16.2466C4.78624 15.5351 8.22953 13.7179 10.9733 10.9738C13.7173 8.2298 15.5347 4.78701 16.2461 0.994659C17.1974 1.03321 18.1327 1.16201 19.0421 1.37733C18.9208 6.04647 17.0445 10.4217 13.7325 13.7335C10.4206 17.0452 6.04575 18.9215 1.37638 19.0431C1.16106 18.1336 1.03161 17.199 0.993711 16.247L0.994171 16.2466ZM14.4264 14.4274C17.8603 10.9935 19.8297 6.47487 20.0144 1.64345C20.8454 1.90236 21.6502 2.23465 22.421 2.63833C22.9318 8.05086 21.0319 13.3408 17.1857 17.187C13.7511 20.6216 9.16582 22.5045 4.36916 22.5045C3.79439 22.5045 3.21547 22.4756 2.63588 22.421C2.23284 21.6507 1.90057 20.8461 1.64229 20.0161C6.47371 19.8304 10.9917 17.8616 14.4263 14.4275L14.4264 14.4274ZM4.37045 23.4858C9.4255 23.4858 14.2587 21.501 17.8795 17.8814C21.7717 13.9892 23.7724 8.69572 23.4502 3.23065C24.2628 3.74453 25.0302 4.34206 25.741 5.01916C26.1629 7.7563 25.9526 10.5918 25.1294 13.2297C24.2629 16.0067 22.7099 18.5693 20.6386 20.6405C18.5673 22.7118 16.0043 24.2646 13.2277 25.1314C10.5905 25.9546 7.75514 26.1648 5.01722 25.7429C4.34017 25.0321 3.7428 24.2648 3.22871 23.4521C3.61028 23.4738 3.99121 23.4857 4.37034 23.4857L4.37045 23.4858ZM5.27376 5.27487C6.72734 3.82129 8.43236 2.71117 10.2914 1.98377C9.41496 3.77334 8.25336 5.3993 6.82609 6.82657C5.39881 8.25385 3.77347 9.41545 1.98328 10.2918C2.71007 8.43413 3.82018 6.72844 5.27376 5.27487ZM26.0041 26.0052C23.2357 28.7737 19.5544 30.2985 15.6392 30.2985C15.0719 30.2985 14.5094 30.2654 13.9543 30.2021C15.3575 30.0034 16.7351 29.6494 18.0752 29.1393C20.602 28.1777 22.8597 26.7129 24.7862 24.7865C26.7127 22.86 28.1773 20.6019 29.1391 18.0754C29.6488 16.7353 30.0032 15.3577 30.2014 13.9539C30.2645 14.5096 30.2978 15.0719 30.2978 15.6398C30.2976 19.5554 28.7728 23.2369 26.0044 26.0053L26.0041 26.0052Z" fill="#AE0F0F"/>
</svg>
