<svg width="32" height="26" viewBox="0 0 32 26" fill="none" xmlns="http://www.w3.org/2000/svg">
<path d="M29.8311 5.88882H29.8289V5.14703C29.8289 4.41162 29.2307 3.8134 28.4951 3.8134C28.2685 3.8134 28.0582 3.87549 27.8713 3.97545C27.8319 3.27526 27.255 2.71622 26.5449 2.71622C25.8095 2.71622 25.2113 3.31444 25.2113 4.04985V5.88859L24.0126 5.88881V1.2456C24.0126 0.558831 23.4538 1.14612e-05 22.767 1.14612e-05C22.08 -0.000208764 21.5212 0.558617 21.5212 1.2456V3.90521C21.5161 3.90521 21.5113 3.90367 21.5062 3.90367H18.4243C18.1522 3.90367 17.8968 4.00936 17.7043 4.20113L16.2727 5.62924C16.2155 5.68627 16.1395 5.71754 16.0589 5.71754H15.2661C15.1857 5.71754 15.11 5.68627 15.0534 5.62968L13.6213 4.20112C13.4289 4.00913 13.1733 3.90366 12.9014 3.90366H9.81946C9.8144 3.90366 9.80933 3.9052 9.80427 3.9052L9.80493 1.24559C9.80493 0.55882 9.2461 6.50681e-08 8.55934 6.50681e-08C7.87234 -0.00022016 7.31352 0.558606 7.31352 1.24559V5.8888H6.11505V4.05006C6.11505 3.31465 5.51683 2.71643 4.78141 2.71643C4.07131 2.71643 3.49445 3.27547 3.45505 3.97566C3.26789 3.8757 3.05784 3.8136 2.83129 3.8136C2.09588 3.8136 1.49766 4.41182 1.49766 5.14724V5.88903L1.49502 5.88881C0.670652 5.88881 0 6.55946 0 7.38382C0 8.20819 0.670652 8.87884 1.49502 8.87884H1.49766V9.62062C1.49766 10.3563 2.09588 10.9545 2.83129 10.9545C3.05786 10.9545 3.26814 10.8924 3.45505 10.7922C3.49468 11.4922 4.07136 12.0512 4.78141 12.0512C5.51683 12.0512 6.11505 11.453 6.11505 10.7176V8.87884H7.31352V16.9539C6.85532 17.1085 6.5015 17.5042 6.43392 17.9804L4.80126 25.05C4.77681 25.1565 4.80192 25.2686 4.87017 25.354C4.93821 25.4397 5.04148 25.4894 5.15091 25.4894L11.9673 25.4892C12.0765 25.4892 12.18 25.4395 12.2481 25.3538C12.3163 25.2684 12.3414 25.1565 12.317 25.0497L10.6901 18.0101C10.6183 17.5107 10.2634 17.1097 9.80473 16.9543V14.9309H21.5211V16.9539C21.0625 17.1085 20.7086 17.5042 20.6415 17.9804L19.0086 25.05C18.9842 25.1565 19.0093 25.2686 19.0775 25.354C19.1456 25.4397 19.2489 25.4894 19.3583 25.4894L26.1747 25.4892C26.2839 25.4892 26.3874 25.4395 26.4554 25.3538C26.5237 25.2684 26.5488 25.1563 26.5244 25.0497L24.8972 18.0101C24.8257 17.5105 24.471 17.1095 24.0121 16.9541V8.87846H25.2108V10.7172C25.2108 11.4526 25.809 12.0508 26.5444 12.0508C27.2545 12.0508 27.8312 11.4918 27.8708 10.7918C28.058 10.8918 28.268 10.9541 28.4946 10.9541C29.2302 10.9541 29.8284 10.3559 29.8284 9.62024L29.8286 8.87845H29.8308C30.6552 8.87845 31.3259 8.2078 31.3259 7.38344C31.3256 6.55908 30.655 5.88842 29.8306 5.88842L29.8311 5.88882ZM1.495 8.16153C1.06631 8.16153 0.717311 7.81254 0.717311 7.38383C0.717311 6.95513 1.0663 6.60614 1.495 6.60614H1.49764V8.16153H1.495ZM2.83129 10.2369C2.49155 10.2369 2.21497 9.9604 2.21497 9.62041V5.14698C2.21497 4.80724 2.49152 4.53066 2.83129 4.53066C3.17103 4.53066 3.4476 4.80721 3.4476 5.14698V9.62041C3.4476 9.96037 3.17106 10.2369 2.83129 10.2369ZM5.39772 10.7176C5.39772 11.0573 5.12118 11.3339 4.78141 11.3339C4.44145 11.3339 4.16487 11.0574 4.16487 10.7176V4.04998C4.16487 3.71024 4.44142 3.43367 4.78141 3.43367C5.12115 3.43367 5.39772 3.71022 5.39772 4.04998V10.7176ZM22.7671 0.717582C23.0584 0.717582 23.2954 0.954717 23.2954 1.2458V5.30595L22.2389 4.2143L22.2387 1.2458C22.2387 0.954497 22.4758 0.717582 22.7671 0.717582H22.7671ZM8.55933 0.717582C8.85064 0.717582 9.08755 0.954717 9.08755 1.2458V4.21452L8.03113 5.30618V1.2458C8.03113 0.954497 8.26826 0.717582 8.55934 0.717582H8.55933ZM9.08777 16.8824H8.03135V8.86596C8.25791 8.83579 8.47215 8.73429 8.63221 8.56871L9.08777 8.09796V16.8827V16.8824ZM11.5168 24.7721H5.60228L7.13895 18.1129C7.181 17.8203 7.43553 17.5999 7.73102 17.5999H9.38877C9.68425 17.5999 9.93879 17.8203 9.98615 18.1426L11.5168 24.7721ZM21.518 14.2135H9.80554V13.178H21.5186L21.518 14.2135ZM9.80554 12.4606V7.35629L10.1647 6.98528C10.2208 6.92716 10.2996 6.89369 10.3809 6.89369H12.3561C12.4367 6.89369 12.5125 6.92495 12.5691 6.98154L14.0009 8.40987C14.1933 8.60187 14.449 8.70756 14.7211 8.70756H16.6072C16.8791 8.70756 17.1345 8.60209 17.3267 8.41031L18.7588 6.98175C18.8149 6.92561 18.8927 6.89368 18.9719 6.89368H20.9465C21.0278 6.89368 21.107 6.92737 21.1634 6.9855L21.5219 7.35584V12.4608L9.80554 12.4606ZM22.2395 8.09723L22.6953 8.5682C22.8553 8.73356 23.0693 8.83506 23.2959 8.86523V16.8817H22.2395L22.2395 8.09723ZM25.7252 24.7716H19.8106L21.3473 18.1119C21.3894 17.8195 21.6437 17.5991 21.9392 17.5991H23.5971C23.8926 17.5991 24.1469 17.8195 24.1943 18.1418L25.7252 24.7716ZM23.4283 8.16149C23.3468 8.16149 23.2675 8.1278 23.2112 8.06945L21.6791 6.48633C21.488 6.28927 21.2211 6.17632 20.9468 6.17632L18.9722 6.1761C18.7003 6.1761 18.4446 6.28179 18.2522 6.47356L16.8202 7.90212C16.7634 7.95871 16.6879 7.98997 16.6075 7.98997H14.7214C14.6406 7.98997 14.5649 7.95871 14.508 7.9019L13.076 6.47334C12.8835 6.28156 12.6281 6.1761 12.3564 6.1761H10.3812C10.1064 6.1761 9.83928 6.28927 9.64906 6.48633L8.11701 8.06923C8.06042 8.12758 7.98138 8.16126 7.90013 8.16126H6.11601V6.60588H7.34024C7.61459 6.60588 7.88145 6.49292 8.07233 6.29564L9.6046 4.7123C9.66097 4.65417 9.73979 4.6207 9.82104 4.6207H12.9029C12.9835 4.6207 13.0595 4.65197 13.1163 4.70878L14.5484 6.13733C14.7408 6.32911 14.9962 6.43458 15.2677 6.43458H16.0606C16.3325 6.43458 16.5881 6.32911 16.7808 6.13711L18.2126 4.70878C18.2687 4.65263 18.3465 4.62071 18.4257 4.62071H21.5076C21.5889 4.62071 21.6679 4.65418 21.7241 4.7123L23.2563 6.29565C23.447 6.49293 23.7141 6.60588 23.9884 6.60588H25.2127V8.16127L23.4283 8.16149ZM27.1623 10.7176C27.1623 11.0573 26.8858 11.3339 26.5458 11.3339C26.2061 11.3339 25.9295 11.0574 25.9295 10.7176V4.04998C25.9295 3.71024 26.206 3.43367 26.5458 3.43367C26.8857 3.43367 27.1623 3.71022 27.1623 4.04998V10.7176ZM29.1125 9.62043C29.1125 9.96039 28.836 10.237 28.496 10.237C28.1562 10.237 27.8797 9.96042 27.8797 9.62043V5.14699C27.8797 4.80725 28.1562 4.53068 28.496 4.53068C28.8359 4.53068 29.1125 4.80723 29.1125 5.14699V9.62043ZM29.8321 8.16149H29.8299V6.6061H29.8321C30.2608 6.6061 30.6098 6.95509 30.6098 7.38379C30.6098 7.8125 30.2608 8.16149 29.8321 8.16149Z" fill="#AE0F0F"/>
</svg>
