<svg width="108" height="12" viewBox="0 0 108 12" fill="none" xmlns="http://www.w3.org/2000/svg">
<path fill-rule="evenodd" clip-rule="evenodd" d="M89.9627 6.21919C94.5059 2.67739 97.2776 1.76865 99.4399 2.04694C101.68 2.33521 103.555 3.89891 106.357 6.2506L107.643 4.71867C107.551 4.64161 107.46 4.56475 107.368 4.48814C104.834 2.35819 102.538 0.429192 99.6952 0.0633007C96.6832 -0.324341 93.3343 1.04216 88.6624 4.69702L88.5939 4.75062L88.5357 4.81525C85.4634 8.22507 83.2485 9.87768 81.0209 9.99337C78.8096 10.1082 76.1862 8.71953 72.2661 4.77934L72.2547 4.76789L72.243 4.75681C70.0425 2.68355 68.0084 0.969573 65.3071 0.727513C62.6209 0.486809 59.54 1.71648 55.2401 4.65941C54.8322 4.93858 54.444 5.2056 54.0735 5.46049C52.4812 6.5558 51.2147 7.42706 50.1084 8.07576C48.7497 8.87241 47.7581 9.25456 46.8536 9.31322C45.9777 9.37002 45.0549 9.13037 43.8234 8.40803C42.5717 7.67387 41.0753 6.48578 39.0701 4.73192L39.0137 4.68264L38.9507 4.6423C38.3968 4.28791 37.8476 3.92121 37.3102 3.56234C36.502 3.02267 35.7203 2.50072 34.9891 2.06501C33.7311 1.31542 32.4443 0.704301 31.0092 0.47087C28.0745 -0.0064967 24.8963 1.14536 20.3985 4.70007L20.3786 4.71579L20.3595 4.7325C17.4066 7.3198 15.0229 8.90929 12.3382 8.9757C9.66406 9.04185 6.38558 7.59468 1.68008 3.22915L0.319824 4.69534C5.13135 9.15923 8.9086 11.0611 12.3877 10.9751C15.8488 10.8895 18.7108 8.83421 21.6583 6.25363C26.0092 2.81903 28.6041 2.10593 30.6881 2.44493C31.764 2.61993 32.7993 3.08837 33.9654 3.78313C34.6704 4.20322 35.3625 4.66623 36.1218 5.17415C36.6439 5.52348 37.1979 5.89405 37.8096 6.28651C39.7948 8.02066 41.3965 9.30324 42.8115 10.1332C44.26 10.9827 45.5822 11.3999 46.983 11.309C48.3552 11.22 49.672 10.6501 51.12 9.80103C52.2947 9.11221 53.6383 8.18778 55.2353 7.08898C55.5999 6.83812 55.9777 6.57817 56.3697 6.30986C60.6095 3.40806 63.184 2.54528 65.1286 2.71953C67.0547 2.89213 68.6248 4.09664 70.8599 6.20152C74.7948 10.1543 77.972 12.1544 81.1247 11.9907C84.2439 11.8287 86.9448 9.55942 89.9627 6.21919Z" fill="white"/>
</svg>
