<svg width="29" height="38" viewBox="0 0 29 38" fill="none" xmlns="http://www.w3.org/2000/svg">
<path d="M7.76946 19.5917L10.2955 22.2621C10.1119 22.378 9.90257 22.44 9.68876 22.4408C9.38043 22.4424 9.08433 22.3136 8.86636 22.0832L7.93876 21.1026C7.75386 20.9077 7.63641 20.6525 7.60568 20.3783C7.57495 20.1041 7.63274 19.8271 7.76946 19.5917ZM12.5585 14.4795L15.131 17.1988L16.1518 16.1197L13.5794 13.4003L12.5585 14.4795ZM20.7719 9.49717L19.8443 8.51657C19.6599 8.32111 19.4185 8.19694 19.1592 8.16446C18.8998 8.13198 18.6378 8.19309 18.4152 8.33762L20.9413 11.008C21.078 10.7726 21.1358 10.4957 21.1051 10.2215C21.0743 9.94732 20.9568 9.69206 20.7719 9.49717ZM16.7592 8.33594C16.4308 7.98934 15.986 7.7947 15.5219 7.7947C15.0578 7.7947 14.613 7.98934 14.2846 8.33594L13.601 9.0586C13.2732 9.40575 13.089 9.87598 13.089 10.3666C13.089 10.8571 13.2732 11.3274 13.601 11.6745L17.7846 16.0972C18.113 16.4435 18.5581 16.6381 19.0219 16.6381C19.4857 16.6381 19.9308 16.4435 20.2592 16.0972L20.9428 15.3745C21.2707 15.0274 21.4548 14.5571 21.4548 14.0665C21.4548 13.576 21.2707 13.1057 20.9428 12.7586L16.7592 8.33594ZM10.9258 14.5026C10.5974 14.156 10.1526 13.9613 9.68854 13.9613C9.22447 13.9613 8.77967 14.156 8.45127 14.5026L7.76766 15.2252C7.43979 15.5724 7.25568 16.0426 7.25568 16.5332C7.25568 17.0238 7.43979 17.494 7.76766 17.8412L11.9513 22.2638C12.2797 22.6101 12.7248 22.8048 13.1886 22.8048C13.6524 22.8048 14.0974 22.6101 14.4258 22.2638L15.1094 21.5412C15.4373 21.194 15.6214 20.7238 15.6214 20.2332C15.6214 19.7426 15.4373 19.2724 15.1094 18.9252L10.9258 14.5026ZM28.3552 15.2998C28.3552 26.5809 15.2598 36.9437 14.7018 37.3792C14.4958 37.5403 14.2146 37.5403 14.0086 37.3792C13.4508 36.9437 0.355225 26.5816 0.355225 15.2998C0.355225 11.3746 1.83023 7.61018 4.45578 4.83483C7.08132 2.05928 10.6423 0.5 14.3552 0.5C18.068 0.5 21.6292 2.05928 24.2545 4.83483C26.8801 7.61039 28.3552 11.3748 28.3552 15.2998ZM24.8552 15.2998C24.8552 12.3558 23.7489 9.53262 21.7799 7.4509C19.8107 5.36939 17.14 4.19992 14.3552 4.19992C11.5704 4.19992 8.89973 5.36939 6.93052 7.4509C4.96151 9.53269 3.85524 12.3559 3.85524 15.2998C3.85524 18.2437 4.96151 21.067 6.93052 23.1487C8.8998 25.2302 11.5704 26.3997 14.3552 26.3997C17.1391 26.3964 19.8079 25.2258 21.7766 23.1448C23.7453 21.0638 24.8521 18.243 24.8552 15.2998Z" fill="#AE0F0F"/>
</svg>
