<svg width="120" height="40" viewBox="0 0 120 40" fill="none" xmlns="http://www.w3.org/2000/svg">
<path d="M8.76946 20.5917L11.2955 23.2621C11.1119 23.378 10.9026 23.44 10.6888 23.4408C10.3804 23.4424 10.0843 23.3136 9.86636 23.0832L8.93876 22.1026C8.75386 21.9077 8.63641 21.6525 8.60568 21.3783C8.57495 21.1041 8.63274 20.8271 8.76946 20.5917ZM13.5585 15.4795L16.131 18.1988L17.1518 17.1197L14.5794 14.4003L13.5585 15.4795ZM21.7719 10.4972L20.8443 9.51657C20.6599 9.32111 20.4185 9.19694 20.1592 9.16446C19.8998 9.13198 19.6378 9.19309 19.4152 9.33762L21.9413 12.008C22.078 11.7726 22.1358 11.4957 22.1051 11.2215C22.0743 10.9473 21.9568 10.6921 21.7719 10.4972ZM17.7592 9.33594C17.4308 8.98934 16.986 8.7947 16.5219 8.7947C16.0578 8.7947 15.613 8.98934 15.2846 9.33594L14.601 10.0586C14.2732 10.4057 14.089 10.876 14.089 11.3666C14.089 11.8571 14.2732 12.3274 14.601 12.6745L18.7846 17.0972C19.113 17.4435 19.5581 17.6381 20.0219 17.6381C20.4857 17.6381 20.9308 17.4435 21.2592 17.0972L21.9428 16.3745C22.2707 16.0274 22.4548 15.5571 22.4548 15.0665C22.4548 14.576 22.2707 14.1057 21.9428 13.7586L17.7592 9.33594ZM11.9258 15.5026C11.5974 15.156 11.1526 14.9613 10.6885 14.9613C10.2245 14.9613 9.77967 15.156 9.45127 15.5026L8.76766 16.2252C8.43979 16.5724 8.25568 17.0426 8.25568 17.5332C8.25568 18.0238 8.43979 18.494 8.76766 18.8412L12.9513 23.2638C13.2797 23.6101 13.7248 23.8048 14.1886 23.8048C14.6524 23.8048 15.0974 23.6101 15.4258 23.2638L16.1094 22.5412C16.4373 22.194 16.6214 21.7238 16.6214 21.2332C16.6214 20.7426 16.4373 20.2724 16.1094 19.9252L11.9258 15.5026ZM29.3552 16.2998C29.3552 27.5809 16.2598 37.9437 15.7018 38.3792C15.4958 38.5403 15.2146 38.5403 15.0086 38.3792C14.4508 37.9437 1.35522 27.5816 1.35522 16.2998C1.35522 12.3746 2.83023 8.61018 5.45578 5.83483C8.08132 3.05928 11.6423 1.5 15.3552 1.5C19.068 1.5 22.6292 3.05928 25.2545 5.83483C27.8801 8.61039 29.3552 12.3748 29.3552 16.2998ZM25.8552 16.2998C25.8552 13.3558 24.7489 10.5326 22.7799 8.4509C20.8107 6.36939 18.14 5.19992 15.3552 5.19992C12.5704 5.19992 9.89973 6.36939 7.93052 8.4509C5.96151 10.5327 4.85524 13.3559 4.85524 16.2998C4.85524 19.2437 5.96151 22.067 7.93052 24.1487C9.8998 26.2302 12.5704 27.3997 15.3552 27.3997C18.1391 27.3964 20.8079 26.2258 22.7766 24.1448C24.7453 22.0638 25.8521 19.243 25.8552 16.2998Z" fill="#AE0F0F"/>
<path d="M55.1921 27.3672C55.1921 27.4603 55.1794 27.5576 55.1541 27.6592C55.1371 27.7607 55.0906 27.8454 55.0144 27.9131C54.6335 28.2008 54.2188 28.4674 53.7703 28.7129C53.3302 28.9499 52.852 29.1572 52.3357 29.335C51.8194 29.5127 51.2608 29.6481 50.6599 29.7412C50.0675 29.8428 49.4285 29.8936 48.7429 29.8936C47.2026 29.8936 45.7976 29.6693 44.5281 29.2207C43.2585 28.7637 42.1667 28.1204 41.2527 27.291C40.3471 26.4616 39.6446 25.4671 39.1453 24.3076C38.6459 23.1396 38.3962 21.8447 38.3962 20.4229C38.3962 19.6188 38.4978 18.8275 38.7009 18.0488C38.9125 17.2702 39.2172 16.5296 39.615 15.8271C40.0128 15.1247 40.5037 14.4814 41.0876 13.8975C41.6716 13.305 42.336 12.793 43.0808 12.3613C43.8341 11.9297 44.6593 11.5954 45.5564 11.3584C46.462 11.113 47.4395 10.9902 48.489 10.9902C48.8953 10.9902 49.31 11.0114 49.7332 11.0537C50.1563 11.0876 50.5753 11.1426 50.99 11.2188C51.4047 11.2865 51.8025 11.3711 52.1833 11.4727C52.5727 11.5742 52.9408 11.6885 53.2878 11.8154L54.1511 14.1641L54.0496 14.2148C53.7195 13.9186 53.3386 13.6436 52.907 13.3896C52.4753 13.1357 52.0141 12.9157 51.5232 12.7295C51.0323 12.5433 50.516 12.3994 49.9744 12.2979C49.4412 12.1878 48.8995 12.1328 48.3494 12.1328C47.283 12.1328 46.3054 12.3021 45.4167 12.6406C44.5281 12.9707 43.7621 13.4531 43.1189 14.0879C42.4841 14.7227 41.989 15.5013 41.6335 16.4238C41.2781 17.3464 41.1003 18.3958 41.1003 19.5723C41.1003 20.8672 41.2696 22.069 41.6082 23.1777C41.9467 24.2865 42.4503 25.2471 43.1189 26.0596C43.7875 26.8721 44.6212 27.5111 45.6199 27.9766C46.627 28.4336 47.7992 28.6621 49.1365 28.6621C49.7289 28.6621 50.2579 28.6156 50.7234 28.5225C51.1889 28.4294 51.5824 28.3151 51.9041 28.1797C52.2257 28.0358 52.4669 27.8835 52.6277 27.7227C52.797 27.5534 52.8816 27.401 52.8816 27.2656V26.7705C52.8816 26.1781 52.8731 25.666 52.8562 25.2344C52.8393 24.8027 52.8139 24.4303 52.78 24.1172C52.7462 23.7956 52.7081 23.5205 52.6658 23.292C52.6235 23.0635 52.5727 22.8519 52.5134 22.6572V22.6064H55.5603V22.6572C55.5095 22.835 55.4587 23.0465 55.408 23.292C55.3656 23.529 55.3276 23.8125 55.2937 24.1426C55.2598 24.4727 55.2345 24.862 55.2175 25.3105C55.2006 25.7507 55.1921 26.2627 55.1921 26.8467V27.3672ZM64.2947 24.2695C64.2947 25.0312 64.3031 25.6956 64.3201 26.2627C64.337 26.8298 64.3582 27.3206 64.3835 27.7354C64.4174 28.1416 64.4555 28.4844 64.4978 28.7637C64.5486 29.043 64.6036 29.2715 64.6628 29.4492V29.5H61.7175V29.4492C61.7768 29.2715 61.8276 29.043 61.8699 28.7637C61.9207 28.4844 61.9587 28.1416 61.9841 27.7354C62.018 27.3206 62.0434 26.8298 62.0603 26.2627C62.0772 25.6956 62.0857 25.0312 62.0857 24.2695V23.3936L57.5154 17.3633C57.2107 16.957 56.9187 16.6312 56.6394 16.3857C56.3601 16.1318 56.1485 15.971 56.0046 15.9033V15.8525H59.6101C59.6101 16.0049 59.6651 16.2419 59.7751 16.5635C59.8852 16.8766 60.1095 17.2617 60.448 17.7188L63.6726 21.9844L66.9734 17.541C67.2104 17.2194 67.3881 16.902 67.5066 16.5889C67.6335 16.2757 67.697 16.0303 67.697 15.8525H70.0203V15.9033C69.8087 16.0472 69.5886 16.2292 69.3601 16.4492C69.1401 16.6693 68.8819 16.9824 68.5857 17.3887L64.2947 23.2031V24.2695ZM70.2742 29.4492C70.3842 29.3307 70.4942 29.1149 70.6042 28.8018C70.7227 28.4886 70.8158 28.1501 70.8835 27.7861C70.9851 27.1937 71.0951 26.5208 71.2136 25.7676C71.3406 25.0059 71.4633 24.223 71.5818 23.4189C71.7087 22.6149 71.8315 21.8151 71.95 21.0195C72.0684 20.2155 72.1785 19.4707 72.28 18.7852C72.3816 18.0996 72.4662 17.4987 72.5339 16.9824C72.6016 16.4661 72.6482 16.0895 72.6736 15.8525H74.1843L80.24 26.6943L86.448 15.8525H87.6794L89.2029 26.4531C89.2791 26.9355 89.351 27.346 89.4187 27.6846C89.4949 28.0231 89.5668 28.3109 89.6345 28.5479C89.7022 28.7764 89.7699 28.9626 89.8376 29.1064C89.9054 29.2503 89.9646 29.3646 90.0154 29.4492V29.5H86.8923V29.4492C86.9177 29.3815 86.9473 29.2673 86.9812 29.1064C87.0235 28.9456 87.0447 28.7552 87.0447 28.5352C87.0447 28.3913 87.032 28.1839 87.0066 27.9131C86.9897 27.6423 86.96 27.3757 86.9177 27.1133L85.8259 19.3311L80.0496 29.4746L79.1482 29.3477L73.4734 19.2549C73.2618 20.6768 73.0756 21.9928 72.9148 23.2031C72.8471 23.7194 72.7794 24.2357 72.7117 24.752C72.644 25.2682 72.5847 25.7549 72.5339 26.2119C72.4832 26.6605 72.4408 27.0583 72.407 27.4053C72.3731 27.7523 72.3562 28.0104 72.3562 28.1797C72.3562 28.3913 72.3604 28.5775 72.3689 28.7383C72.3774 28.8906 72.3901 29.026 72.407 29.1445C72.4239 29.2799 72.4408 29.3984 72.4578 29.5H70.2742V29.4492ZM101.01 25.209C100.781 25.209 100.493 25.209 100.146 25.209C99.8077 25.209 99.4353 25.209 99.0291 25.209C98.6228 25.209 98.2039 25.209 97.7722 25.209C97.3406 25.209 96.9301 25.2132 96.5408 25.2217C96.1514 25.2217 95.796 25.2259 95.4744 25.2344C95.1528 25.2344 94.9031 25.2344 94.7253 25.2344L94.2556 26.2246C94.0525 26.6309 93.879 26.9863 93.7351 27.291C93.5912 27.5872 93.4727 27.8496 93.3796 28.0781C93.2865 28.3066 93.2188 28.5055 93.1765 28.6748C93.1342 28.8356 93.113 28.988 93.113 29.1318C93.113 29.2249 93.1173 29.2969 93.1257 29.3477C93.1342 29.39 93.1469 29.4238 93.1638 29.4492V29.5H90.9294V29.4492C90.9887 29.39 91.0818 29.263 91.2087 29.0684C91.3357 28.8652 91.4796 28.6198 91.6404 28.332C91.8097 28.0443 91.9874 27.7184 92.1736 27.3545C92.3682 26.9906 92.5587 26.6139 92.7449 26.2246L97.9246 15.5352H98.8767L103.955 26.2246C104.149 26.6309 104.344 27.0202 104.539 27.3926C104.742 27.765 104.928 28.0993 105.097 28.3955C105.267 28.6833 105.415 28.9245 105.542 29.1191C105.669 29.3053 105.753 29.4154 105.796 29.4492V29.5H102.546C102.563 29.4323 102.571 29.373 102.571 29.3223C102.571 29.263 102.571 29.1995 102.571 29.1318C102.571 28.9456 102.529 28.7214 102.444 28.459C102.368 28.1966 102.271 27.93 102.152 27.6592C102.042 27.3799 101.924 27.1133 101.797 26.8594C101.678 26.6055 101.581 26.3939 101.505 26.2246L101.01 25.209ZM95.2205 24.2188H95.9949C96.3503 24.2188 96.727 24.2188 97.1248 24.2188C97.531 24.2103 97.9373 24.2061 98.3435 24.2061C98.7498 24.2061 99.1433 24.2061 99.5242 24.2061C99.905 24.1976 100.248 24.1934 100.552 24.1934L97.9246 18.582L95.2205 24.2188ZM110.125 16.792C109.355 16.792 108.652 16.8258 108.017 16.8936C107.391 16.9613 106.849 17.0332 106.392 17.1094C105.868 17.2025 105.394 17.304 104.97 17.4141L105.224 15.7764C105.351 15.7933 105.559 15.806 105.846 15.8145C106.134 15.8229 106.435 15.8314 106.748 15.8398C107.069 15.8398 107.37 15.8441 107.649 15.8525C107.937 15.8525 108.136 15.8525 108.246 15.8525H114.251C114.352 15.8525 114.538 15.8525 114.809 15.8525C115.089 15.8441 115.385 15.8398 115.698 15.8398C116.011 15.8314 116.312 15.8229 116.599 15.8145C116.887 15.806 117.094 15.7933 117.221 15.7764L117.475 17.4141C117.069 17.304 116.604 17.2025 116.079 17.1094C115.63 17.0332 115.089 16.9613 114.454 16.8936C113.828 16.8258 113.121 16.792 112.334 16.792V24.2695C112.334 25.0312 112.342 25.6956 112.359 26.2627C112.376 26.8298 112.397 27.3206 112.423 27.7354C112.456 28.1416 112.495 28.4844 112.537 28.7637C112.579 29.043 112.63 29.2715 112.689 29.4492V29.5H109.757V29.4492C109.816 29.2715 109.867 29.043 109.909 28.7637C109.951 28.4844 109.989 28.1416 110.023 27.7354C110.057 27.3206 110.082 26.8298 110.099 26.2627C110.116 25.6956 110.125 25.0312 110.125 24.2695V16.792Z" fill="white"/>
</svg>
