<svg width="17" height="14" viewBox="0 0 17 14" fill="none" xmlns="http://www.w3.org/2000/svg">
<path d="M16.3276 1.60805C15.7369 1.88301 15.1016 2.06631 14.4315 2.15294C15.1129 1.72809 15.6369 1.05045 15.8829 0.249826C15.2455 0.642453 14.5393 0.930714 13.7878 1.08268C13.1878 0.414505 12.3319 0 11.3837 0C9.56214 0 8.08594 1.53739 8.08594 3.43282C8.08594 3.70098 8.11577 3.96233 8.17206 4.216C5.43187 4.07143 3.00155 2.70315 1.37562 0.626488C1.08994 1.13383 0.929236 1.72809 0.929236 2.35517C0.929236 3.54694 1.51015 4.59592 2.39587 5.21413C1.85521 5.19668 1.34634 5.0388 0.90081 4.78543C0.90081 4.79578 0.90081 4.81115 0.90081 4.82564C0.90081 6.49105 2.03787 7.87766 3.54503 8.19341C3.26949 8.27265 2.97847 8.3167 2.67845 8.3167C2.46539 8.3167 2.25796 8.29128 2.057 8.25343C2.47665 9.61432 3.6942 10.6092 5.13663 10.6385C4.00801 11.5576 2.58669 12.1081 1.04097 12.1081C0.773876 12.1081 0.512972 12.0922 0.254883 12.0594C1.71476 13.0306 3.44877 13.6 5.31 13.6C11.375 13.6 14.6927 8.36814 14.6927 3.82959C14.6927 3.68087 14.6882 3.53275 14.6814 3.3864C15.329 2.90626 15.8869 2.30018 16.3276 1.60805Z" fill="#A5A5A5"/>
</svg>
