<svg width="13" height="13" viewBox="0 0 13 13" fill="none" xmlns="http://www.w3.org/2000/svg">
<path d="M3.90951 0.236084C1.8845 0.236084 0.236816 1.88624 0.236816 3.91361V9.16594C0.236816 11.193 1.88547 12.8425 3.91099 12.8425H9.15853C11.1838 12.8425 12.8317 11.1923 12.8317 9.16496V3.91213C12.8317 1.88527 11.1831 0.236084 9.15755 0.236084H3.90951ZM10.3127 2.25311C10.5908 2.25311 10.8165 2.47901 10.8165 2.75736C10.8165 3.03571 10.5908 3.26162 10.3127 3.26162C10.0346 3.26162 9.80894 3.03571 9.80894 2.75736C9.80894 2.47901 10.0346 2.25311 10.3127 2.25311ZM6.53427 3.26162C8.34038 3.26162 9.80894 4.73152 9.80894 6.53928C9.80894 8.34704 8.34012 9.81694 6.53427 9.81694C4.72816 9.81694 3.25959 8.34678 3.25959 6.53928C3.25959 4.73178 4.72816 3.26162 6.53427 3.26162ZM6.53427 4.27013C5.28208 4.27013 4.26718 5.28595 4.26718 6.53928C4.26718 7.79261 5.28208 8.80843 6.53427 8.80843C7.78645 8.80843 8.80135 7.79261 8.80135 6.53928C8.80135 5.28595 7.78645 4.27013 6.53427 4.27013Z" fill="#A5A5A5"/>
</svg>
