<svg width="20" height="18" viewBox="0 0 20 18" fill="none" xmlns="http://www.w3.org/2000/svg">
<path fill-rule="evenodd" clip-rule="evenodd" d="M9.80444 0.000378112C9.62795 0.00788536 9.47486 0.124322 9.42053 0.292423L7.43274 6.45325L0.961023 6.44044C0.777906 6.44015 0.615397 6.55806 0.558868 6.7322C0.502343 6.90633 0.564462 7.09711 0.712691 7.20456L5.95669 10.9993L3.94312 17.1537L3.94327 17.1535C3.8863 17.3277 3.94813 17.5184 4.09636 17.6262C4.24444 17.7338 4.44507 17.7336 4.59302 17.6257L9.82232 13.8096L15.0535 17.6257V17.6256C15.2014 17.7335 15.4021 17.7336 15.5503 17.626C15.6984 17.5183 15.7602 17.3274 15.7033 17.1534L13.6897 10.999L18.9337 7.20426L18.9338 7.20441C19.0822 7.09695 19.1443 6.90618 19.0878 6.7319C19.0311 6.55776 18.8688 6.43985 18.6855 6.44029L12.2138 6.4531L10.2238 0.292272C10.1655 0.111803 9.99399 -0.0075733 9.80455 0.000374087L9.80444 0.000378112Z" fill="#FBA724"/>
</svg>
