<svg width="20" height="20" viewBox="0 0 20 20" fill="none" xmlns="http://www.w3.org/2000/svg">
<path d="M5.33664 14.3113C6.031 16.8083 7.99902 18.749 10.5056 19.4081C13.0123 20.0673 15.6804 19.3456 17.5131 17.513C19.3456 15.6803 20.0674 13.0122 19.4081 10.5055C18.749 7.99899 16.8084 6.03097 14.3113 5.33661C13.617 2.83958 11.6489 0.89895 9.14242 0.239792C6.63566 -0.419366 3.96756 0.302353 2.1349 2.13487C0.302351 3.96765 -0.419395 6.63574 0.23982 9.14239C0.898978 11.6489 2.83961 13.6169 5.33664 14.3113ZM14.5268 8.13509H14.527C15.8825 8.82633 16.8253 10.1246 17.0629 11.6275C17.3006 13.1305 16.8045 14.6564 15.7282 15.732C14.6519 16.8077 13.1258 17.3033 11.623 17.0648C10.1201 16.8265 8.82228 15.883 8.13194 14.5271C9.76224 14.3367 11.2807 13.6019 12.4411 12.4412C13.6019 11.2807 14.3367 9.76227 14.527 8.13203L14.5268 8.13509ZM7.62173 12.0268C7.70286 10.8852 8.19295 9.81116 9.00224 9.0021C9.81131 8.19281 10.8854 7.70274 12.0269 7.62159C11.9458 8.76312 11.4557 9.8372 10.6464 10.6463C9.83734 11.4556 8.76326 11.9456 7.62173 12.0268ZM7.28905 2.53553C8.16331 2.53619 9.02058 2.7778 9.76638 3.23407C10.5122 3.69033 11.1179 4.34335 11.5165 5.12146C9.88618 5.31178 8.36776 6.04659 7.20728 7.2073C6.04651 8.36784 5.31174 9.88626 5.12143 11.5165C3.84861 10.862 2.93831 9.66873 2.64342 8.26791C2.34876 6.86731 2.70089 5.40837 3.60211 4.29621C4.50332 3.18405 5.85772 2.53728 7.28905 2.53553Z" fill="white"/>
</svg>
