<svg width="26" height="29" viewBox="0 0 26 29" fill="none" xmlns="http://www.w3.org/2000/svg">
<path d="M1.15628 1.0047H0.547679C0.243265 1.0047 0 1.24819 0 1.55238V6.05636C0 6.36077 0.243488 6.60404 0.547679 6.60404H1.15628C1.46069 6.60404 1.70396 6.36055 1.70396 6.05636L1.70417 1.55238C1.73453 1.24818 1.46068 1.0047 1.15627 1.0047H1.15628Z" fill="#AE0F0F"/>
<path d="M22.2157 0.000380407H20.968C20.6635 0.000380407 20.4203 0.243869 20.4203 0.54806V3.31749H18.5942C18.3811 3.04364 18.0465 2.86108 17.6812 2.89144C17.3768 2.9218 17.1335 3.074 16.9507 3.31749H8.12526C7.94269 3.10436 7.69921 2.9218 7.39482 2.89144C7.02969 2.86108 6.69492 3.01308 6.48178 3.31749H4.65572L4.65614 0.54806C4.65614 0.243646 4.41265 0.000380407 4.10846 0.000380407H2.86067C2.55625 0.000380407 2.31299 0.243869 2.31299 0.54806V7.03022C2.31299 7.33463 2.55648 7.5779 2.86067 7.5779H4.10846C4.41288 7.5779 4.65614 7.33441 4.65614 7.03022V4.26079H6.23869C5.87357 8.36931 6.26905 8.94731 6.45183 9.19083C6.81695 9.73851 8.46044 11.5037 10.1343 12.0819L10.2559 18.2597L9.06883 27.5417C8.97755 28.2112 9.46452 28.8198 10.1035 28.8808C10.773 28.972 11.3817 28.4851 11.4426 27.8461L12.5382 19.3858L13.6034 27.8461C13.6947 28.4547 14.212 28.9114 14.7903 28.9114H14.9425C15.612 28.8201 16.0684 28.2115 15.9771 27.5723L14.8207 18.2599L14.9423 12.082C16.5855 11.5038 18.229 9.73867 18.6248 9.19099C18.8073 8.9475 19.203 8.33888 18.8379 4.26095H20.4204V7.03038C20.4204 7.3348 20.6639 7.57806 20.9681 7.57806H22.2159C22.5203 7.57806 22.7636 7.33457 22.7636 7.03038V0.547679C22.7939 0.243478 22.5201 0 22.2157 0L22.2157 0.000380407ZM16.8597 8.09547C16.2814 8.88667 14.6381 10.1954 13.938 10.1954H11.1382C10.4383 10.1954 8.82537 8.85629 8.21656 8.09547C8.12527 7.57814 8.1862 5.78264 8.30784 4.26101H16.7377C16.8899 5.78243 16.9508 7.57812 16.8595 8.09547H16.8597Z" fill="#AE0F0F"/>
<path d="M24.5286 1.0047H23.92C23.6156 1.0047 23.3723 1.24819 23.3723 1.55238V6.05636C23.3723 6.36077 23.6158 6.60404 23.92 6.60404H24.5286C24.833 6.60404 25.0763 6.36055 25.0763 6.05636V1.55238C25.0763 1.24818 24.8328 1.0047 24.5286 1.0047Z" fill="#AE0F0F"/>
<path d="M14.9727 7.18253C14.9727 8.52711 13.8826 9.6172 12.5381 9.6172C11.1935 9.6172 10.1034 8.52711 10.1034 7.18253C10.1034 5.83795 11.1935 4.74786 12.5381 4.74786C13.8826 4.74786 14.9727 5.83795 14.9727 7.18253Z" fill="#AE0F0F"/>
</svg>
