<svg width="29" height="24" viewBox="0 0 29 24" fill="none" xmlns="http://www.w3.org/2000/svg">
<path d="M15.1089 14.8485H11.2845C11.0178 14.8485 10.8016 15.0648 10.8016 15.3314C10.8051 15.4213 10.8335 15.5082 10.8838 15.5825L10.7727 15.6211H10.7725C10.1926 14.5027 9.09973 13.7412 7.84983 13.5845C6.59976 13.4275 5.35246 13.8957 4.51435 14.8363C3.67625 15.7768 3.35435 17.0696 3.65357 18.2934C3.95278 19.5172 4.83487 20.5155 6.01231 20.963C7.18998 21.4107 8.5125 21.2506 9.54916 20.5347C10.5858 19.8187 11.2039 18.6388 11.2024 17.3789C11.2024 17.0929 11.17 16.8079 11.1058 16.5292L13.0759 15.8146H15.1136V15.8144C15.3803 15.8144 15.5965 15.5984 15.5965 15.3315C15.5965 15.0648 15.3803 14.8486 15.1136 14.8486L15.1089 14.8485ZM10.2366 17.3789C10.2407 18.3257 9.78199 19.2147 9.00786 19.7601C8.23399 20.3052 7.24236 20.4378 6.35205 20.1153C5.46196 19.7926 4.78572 19.0554 4.54086 18.1409C4.29576 17.2263 4.51327 16.2497 5.12312 15.5254C5.73276 14.8011 6.65795 14.4206 7.60085 14.506C8.54375 14.5916 9.38556 15.1322 9.85508 15.9544L7.20401 16.9201H7.20423C6.95352 17.0109 6.82396 17.2875 6.9145 17.5381C6.98348 17.7294 7.16499 17.8568 7.36828 17.857C7.42475 17.8574 7.48081 17.8458 7.53254 17.8231L10.1884 16.8574C10.2196 17.0294 10.2356 17.204 10.2366 17.3788L10.2366 17.3789Z" fill="#DC0505"/>
<path d="M25.9881 7.29638C27.2505 6.45027 28.0076 5.03034 28.0065 3.51053V0.482875C28.0065 0.216218 27.7903 0 27.5236 0C27.257 0 27.0407 0.216218 27.0407 0.482875V3.51053C27.0425 4.708 26.4464 5.82744 25.452 6.49464L24.2013 7.32998L24.5345 4.17187L25.3602 3.42814L25.3604 3.42835C25.457 3.34298 25.5156 3.22248 25.5227 3.09357C25.53 2.96488 25.4854 2.83855 25.399 2.74284C25.2229 2.54301 24.9183 2.5236 24.7182 2.69929L20.1309 6.82785C19.939 7.00483 19.9227 7.3021 20.0936 7.49913C20.2645 7.69615 20.5612 7.72181 20.7634 7.5569L21.5022 6.88562L20.8261 13.3462L8.97666 11.2024L7.97234 8.58037H7.97212C7.87749 8.33354 7.60199 8.20873 7.3541 8.30035L6.68282 8.55623L5.57695 5.65898H7.40735C7.85768 5.65747 8.27697 5.42962 8.52315 5.05238C8.76933 4.67535 8.809 4.1996 8.629 3.78675C8.449 3.37393 8.07328 3.07949 7.62942 3.00317L3.43315 2.29828L2.31305 1.63672C2.00155 1.45154 1.63443 1.38277 1.27705 1.44292C0.919633 1.50306 0.595009 1.68802 0.361298 1.96481C0.127404 2.2416 -0.000643243 2.59255 2.42994e-06 2.9549C2.42994e-06 3.67209 0.284987 4.35998 0.792027 4.86697C1.29926 5.37421 1.98691 5.659 2.7041 5.659H2.85867L4.30729 9.464L3.64572 9.71513C3.52501 9.76083 3.42757 9.8531 3.3754 9.97101C3.32711 10.0887 3.32711 10.2204 3.3754 10.3381L3.96931 11.8978C3.45906 12.1897 2.99539 12.5557 2.59309 12.9843C1.47343 14.199 0.866164 15.7992 0.898061 17.4509C0.968335 19.1511 1.69759 20.7571 2.93154 21.9289C4.1655 23.1008 5.80721 23.746 7.5087 23.7283H22.8542C24.142 23.749 25.3897 23.2805 26.3459 22.4176C27.302 21.5547 27.8955 20.3613 28.0065 19.0782C28.1037 17.6962 27.6167 16.3368 26.6642 15.331C25.8426 14.4554 24.7339 13.9035 23.5399 13.7763L24.0808 8.57572L25.9881 7.29638ZM22.608 5.92016L23.4819 5.13784L22.5694 13.6607L21.7921 13.5206L22.608 5.92016ZM0.965276 2.95519C0.965061 2.75428 1.07414 2.56932 1.25026 2.47232C1.33713 2.42295 1.43522 2.39644 1.53503 2.39515C1.63592 2.3945 1.73486 2.42317 1.82001 2.47728L3.01749 3.18217C3.06858 3.21062 3.12398 3.23024 3.18175 3.24016L7.46963 3.95972V3.95951C7.64726 3.99206 7.77703 4.14597 7.77854 4.32662C7.77983 4.42557 7.74125 4.52084 7.67119 4.59091C7.60113 4.66097 7.50585 4.69977 7.4069 4.69848H2.70359C2.24205 4.69718 1.79992 4.51287 1.47422 4.18607C1.14828 3.85926 0.965254 3.41672 0.965254 2.95515L0.965276 2.95519ZM3.89139 5.65929H4.54324L5.79397 8.89952L5.22423 9.11681L3.89139 5.65929ZM4.44195 10.4253L7.24263 9.37743L7.88008 11.0434C6.84424 10.9468 5.80046 11.0958 4.833 11.478L4.44195 10.4253ZM27.0405 19.0155C26.9512 20.0556 26.4703 21.0233 25.6949 21.7224C24.9195 22.4217 23.9076 22.8002 22.8636 22.7819H7.50818C6.05613 22.7994 4.65447 22.2505 3.60054 21.2516C2.5466 20.2527 1.92361 18.8825 1.86329 17.4315C1.83979 16.0271 2.35867 14.6677 3.31192 13.6362C4.33738 12.564 5.75907 11.9614 7.24263 11.9703C7.58904 11.9696 7.93504 12.0005 8.27609 12.0621C8.27609 12.0621 22.9555 14.7132 22.9842 14.7132V14.713C24.0976 14.7244 25.1593 15.184 25.9297 15.9879C26.7081 16.7967 27.111 17.8952 27.0403 19.0155L27.0405 19.0155Z" fill="#DC0505"/>
</svg>
