<svg width="350" height="46" viewBox="0 0 350 46" fill="none" xmlns="http://www.w3.org/2000/svg">
<path d="M337.298 30.4633H317.54V33.0528H323.185V36.9369H328.831L338.71 35.6422L340.121 36.9369L345.766 39.5264H350V42.1158H347.177V46C220.625 42.5828 152.419 42.1158 45.1613 44.7053L14.1129 46V42.1158H18.3468V39.5264H14.1129V36.9369H2.82258V33.0528L0 26.5791V22.695H14.1129L12.7016 20.1055H26.8145L31.0484 18.8108H43.75V16.2213H36.6935L32.4597 14.9266L31.0484 13.6319L28.2258 12.3372L31.0484 9.74772H36.6935L40.9274 7.15827H46.5726H59.2742V3.2741C159.721 -1.96839 218.069 -0.0971044 320.862 3.19959L323.185 3.2741V7.15827L326.008 9.74772L328.831 7.15827H337.298V12.3372H342.944V16.2213H340.121V23.9897H337.298V30.4633Z" fill="#AE0F0F"/>
</svg>
