<svg width="21" height="31" viewBox="0 0 21 31" fill="none" xmlns="http://www.w3.org/2000/svg">
<path d="M20.3831 30.1477H0.76229C0.517601 30.1477 0.31897 29.949 0.31897 29.7038C0.31897 29.4587 0.517369 29.2598 0.76229 29.2598H20.3831C20.6278 29.2598 20.8265 29.4585 20.8265 29.7038C20.8265 29.949 20.6278 30.1477 20.3831 30.1477Z" fill="#AE0F0F"/>
<path d="M5.7907 2.62292C5.7907 4.01321 4.6652 5.14037 3.27682 5.14037C1.88874 5.14037 0.763184 4.01327 0.763184 2.62292C0.763184 1.23263 1.88868 0.105713 3.27682 0.105713C4.66514 0.105713 5.7907 1.23257 5.7907 2.62292Z" fill="#AE0F0F"/>
<path d="M5.21974 11.5324C5.24696 10.9407 4.84643 10.4369 4.32986 10.4131L2.98221 10.3065L3.83511 8.60568L4.20749 8.8011L6.85022 13.4325L10.3207 8.79251L8.71489 6.85179L11.5953 6.98433C12.1119 7.00809 12.5568 6.54341 12.584 5.9518C12.6113 5.3602 12.2107 4.85637 11.6942 4.83258L6.82646 4.60851C6.53386 4.595 6.24289 4.63646 5.96588 4.73173C4.59709 5.20153 2.85472 5.9355 2.85472 5.9355C2.65353 6.04242 2.49327 6.21151 2.39302 6.41323C2.39186 6.41555 2.39 6.41625 2.38883 6.41858L0.323203 10.8097C-0.158964 11.5827 0.63395 12.2973 1.15056 12.3214L4.23124 12.565C4.74783 12.5888 5.19257 12.1241 5.21978 11.5325L5.21974 11.5324Z" fill="#AE0F0F"/>
<path d="M19.9289 0.300955C19.4456 -0.0405123 18.7711 0.0761864 18.43 0.560201L11.62 10.3625L11.1937 9.84727L7.56944 14.6928L8.50237 16.3279L4.56575 26.5607C4.38433 27.208 4.6153 27.9561 5.16726 28.1693C5.71921 28.3822 6.3916 27.9825 6.66145 27.281L11.1763 15.5312C11.5445 14.5727 12.0246 13.6613 12.6067 12.8158L20.1878 1.80186C20.5288 1.31808 20.4123 0.642631 19.9289 0.30114L19.9289 0.300955Z" fill="#AE0F0F"/>
</svg>
