<svg width="15" height="15" viewBox="0 0 15 15" fill="none" xmlns="http://www.w3.org/2000/svg">
<path d="M7.3457 14.3452C5.48916 14.3452 3.70868 13.6077 2.39589 12.295C1.08319 10.9822 0.345703 9.20173 0.345703 7.34522C0.345703 5.4887 1.08319 3.70819 2.39589 2.3954C3.70868 1.0827 5.48919 0.345215 7.3457 0.345215C9.20222 0.345215 10.9827 1.0827 12.2955 2.3954C13.6082 3.70819 14.3457 5.4887 14.3457 7.34522C14.3457 8.57395 14.0223 9.78103 13.4079 10.8452C12.7935 11.9093 11.9099 12.793 10.8457 13.4073C9.7816 14.0217 8.57452 14.3451 7.34578 14.3451L7.3457 14.3452ZM7.3457 1.2787C5.73676 1.2787 4.19374 1.91786 3.05589 3.05556C1.91819 4.19325 1.27903 5.73633 1.27903 7.34538C1.27903 8.95442 1.91819 10.4973 3.05589 11.6352C4.19358 12.7729 5.73665 13.4121 7.3457 13.4121C8.95475 13.4121 10.4977 12.7729 11.6355 11.6352C12.7732 10.4975 13.4124 8.95442 13.4124 7.34538C13.4124 5.73633 12.7732 4.19341 11.6355 3.05556C10.4978 1.91786 8.95475 1.2787 7.3457 1.2787Z" fill="#A5A5A5"/>
<path d="M7.12624 7.00004C5.00792 6.95317 2.91775 6.50506 0.966309 5.67933L1.34433 4.8254C1.41902 4.85811 8.89038 8.12483 12.6794 3.81738L13.3794 4.43343C11.6435 6.41205 9.30557 7.00007 7.12613 7.00007L7.12624 7.00004Z" fill="#A5A5A5"/>
<path d="M2.47385 11.5871L1.86719 10.8777C2.14249 10.6397 8.69911 5.13294 14.131 8.5677L13.6317 9.35633C8.78319 6.2905 2.53446 11.5451 2.47393 11.587L2.47385 11.5871Z" fill="#A5A5A5"/>
<path d="M7.49514 14.1724L6.77182 13.5844C12.1616 6.97194 6.79974 1.37201 6.56641 1.13868L7.23368 0.485352C7.29441 0.550663 13.4123 6.92048 7.49513 14.1724L7.49514 14.1724Z" fill="#A5A5A5"/>
</svg>
