<svg width="28" height="28" viewBox="0 0 28 28" fill="none" xmlns="http://www.w3.org/2000/svg">
<path d="M25.7419 0H2.25806C1.65946 0.000806452 1.08547 0.238911 0.66209 0.66209C0.238906 1.08548 0.000825806 1.65946 0 2.25806V25.7419C0.000806452 26.3405 0.238911 26.9145 0.66209 27.3379C1.08548 27.7611 1.65946 27.9992 2.25806 28H25.7419C26.3405 27.9992 26.9145 27.7611 27.3379 27.3379C27.7611 26.9145 27.9992 26.3405 28 25.7419V2.25806C27.9992 1.65946 27.7611 1.08547 27.3379 0.66209C26.9145 0.238906 26.3405 0.000825806 25.7419 0ZM27.0968 25.7419C27.0968 26.1012 26.954 26.446 26.7 26.7C26.446 26.954 26.1012 27.0967 25.742 27.0967H2.25809C1.89882 27.0967 1.55404 26.954 1.30005 26.7C1.04606 26.4459 0.903277 26.1012 0.903277 25.7419V2.25806C0.903277 1.89879 1.04602 1.55401 1.30005 1.30003C1.55409 1.04604 1.89886 0.903252 2.25809 0.903252H25.742C26.1012 0.903252 26.446 1.04599 26.7 1.30003C26.954 1.55406 27.0968 1.89884 27.0968 2.25806V25.7419Z" fill="#DC0505"/>
<path d="M24.8386 1.80652H3.16121C2.80194 1.80652 2.45716 1.94926 2.20317 2.20329C1.94918 2.45733 1.8064 2.80211 1.8064 3.16133V24.8388C1.8064 25.198 1.94914 25.5428 2.20317 25.7968C2.4572 26.0508 2.80198 26.1936 3.16121 26.1936H24.8386C25.1979 26.1936 25.5427 26.0508 25.7967 25.7968C26.0507 25.5428 26.1934 25.198 26.1934 24.8388V3.16133C26.1934 2.80206 26.0507 2.45728 25.7967 2.20329C25.5426 1.94931 25.1979 1.80652 24.8386 1.80652ZM3.16121 2.70974H24.8386C24.9584 2.70974 25.0733 2.75733 25.158 2.842C25.2427 2.92668 25.2902 3.0416 25.2902 3.16136V18.9678H23.0322V14.5845C23.0429 13.6293 22.6848 12.7069 22.0326 12.0093C21.3802 11.3115 20.484 10.8924 19.5304 10.8387C18.3852 10.803 17.2911 11.3127 16.5816 12.2123C15.8719 13.1119 15.6312 14.2946 15.9324 15.4C16.2649 16.5678 16.4997 17.7611 16.6346 18.9678H11.3654C11.5003 17.7611 11.7352 16.5678 12.0676 15.4C12.3688 14.2946 12.1281 13.1119 11.4184 12.2123C10.709 11.3127 9.61483 10.803 8.46965 10.8387C7.516 10.8924 6.61984 11.3115 5.96745 12.0093C5.31522 12.7069 4.95718 13.6293 4.96787 14.5845V18.9678H2.7098V3.16136C2.7098 2.91196 2.91202 2.70974 3.16142 2.70974H3.16121ZM16.804 15.1624C16.5827 14.3477 16.7538 13.4765 17.2665 12.806C17.7792 12.1354 18.5752 11.7421 19.4194 11.7423H19.5038C20.2232 11.7872 20.8974 12.1076 21.3863 12.637C21.8754 13.1665 22.1414 13.864 22.1291 14.5848V21.1123C22.1398 21.7133 21.9182 22.2953 21.5106 22.737C21.1029 23.179 20.5406 23.4465 19.9406 23.484C19.3297 23.5028 18.7374 23.2734 18.2987 22.8478C17.8602 22.4222 17.6128 21.8371 17.613 21.226V20.3742C17.5805 18.6082 17.3084 16.855 16.8041 15.1623L16.804 15.1624ZM10.387 20.3743V21.2261C10.3892 21.8374 10.1413 22.4229 9.70093 22.8468C9.26524 23.2769 8.67109 23.5075 8.05938 23.4841C7.45938 23.4466 6.89705 23.1791 6.48942 22.7372C6.08176 22.2954 5.8602 21.7134 5.87089 21.1124V14.5849C5.85859 13.8641 6.12472 13.1666 6.61365 12.6371C7.10276 12.1077 7.77716 11.7871 8.49649 11.7424H8.58096C9.42509 11.7424 10.2209 12.1357 10.7336 12.8063C11.2463 13.4768 11.417 14.3478 11.1959 15.1625C10.6916 16.8552 10.4195 18.6085 10.387 20.3744L10.387 20.3743ZM24.8386 25.2906H3.16121C2.91182 25.2906 2.7096 25.0884 2.7096 24.839V19.8712H4.96766V21.1124C4.95839 21.9477 5.27189 22.7545 5.84265 23.3646C6.41344 23.9747 7.1977 24.341 8.03176 24.3874H8.13076C8.96926 24.3874 9.77329 24.0543 10.3661 23.4614C10.959 22.8687 11.292 22.0646 11.292 21.2261V20.3743C11.292 20.2081 11.2961 20.04 11.3025 19.8712H16.6992C16.7054 20.0402 16.7097 20.2081 16.7097 20.3743V21.2261C16.7097 22.0646 17.0427 22.8686 17.6356 23.4614C18.2284 24.0543 19.0324 24.3874 19.871 24.3874H19.9699C20.8038 24.3406 21.5875 23.9741 22.1579 23.364C22.7282 22.7539 23.0415 21.9475 23.0322 21.1124V19.8712H25.2903V24.839C25.2903 24.9587 25.2427 25.0737 25.158 25.1583C25.0734 25.243 24.9585 25.2906 24.8387 25.2906H24.8386Z" fill="#DC0505"/>
<path d="M6.32259 9.93544H21.6774C22.0367 9.93544 22.3815 9.7927 22.6355 9.53867C22.8895 9.28464 23.0322 8.93986 23.0322 8.58063V4.96773C23.0322 4.60846 22.8895 4.26368 22.6355 4.00969C22.3814 3.7557 22.0367 3.61292 21.6774 3.61292H6.32259C5.96331 3.61292 5.61853 3.75566 5.36455 4.00969C5.11056 4.26372 4.96777 4.6085 4.96777 4.96773V8.58063C4.96777 8.9399 5.11051 9.28468 5.36455 9.53867C5.61858 9.79266 5.96336 9.93544 6.32259 9.93544ZM5.87097 4.9677C5.87097 4.71831 6.07319 4.51609 6.32259 4.51609H21.6774C21.7972 4.51609 21.9121 4.56367 21.9968 4.64835C22.0815 4.73302 22.129 4.84794 22.129 4.9677V8.58061C22.129 8.70036 22.0815 8.81528 21.9968 8.89996C21.9121 8.98464 21.7972 9.03222 21.6774 9.03222H6.32259C6.07319 9.03222 5.87097 8.83 5.87097 8.58061V4.9677Z" fill="#DC0505"/>
<path d="M17.1613 8.58068H18.9678C19.0875 8.58068 19.2025 8.5331 19.2871 8.44842C19.3718 8.36374 19.4194 8.24882 19.4194 8.12906V5.41939C19.4194 5.29963 19.3718 5.18471 19.2871 5.10003C19.2025 5.01536 19.0875 4.96777 18.9678 4.96777H17.1613C16.9119 4.96777 16.7097 5.16999 16.7097 5.41939V8.12906C16.7097 8.24882 16.7573 8.36374 16.842 8.44842C16.9267 8.53309 17.0416 8.58068 17.1613 8.58068ZM17.6129 5.871H18.5162V7.67745H17.6129V5.871Z" fill="#DC0505"/>
<path d="M20.3225 7.67737H21.2257V8.58059H20.3225V7.67737Z" fill="#DC0505"/>
<path d="M20.7743 14.4515H21.6775C21.6767 13.8529 21.4386 13.279 21.0154 12.8556C20.592 12.4324 20.018 12.1943 19.4194 12.1935V13.0967C19.7787 13.0967 20.1235 13.2394 20.3775 13.4935C20.6315 13.7475 20.7742 14.0923 20.7742 14.4515L20.7743 14.4515Z" fill="#DC0505"/>
<path d="M6.32254 14.4516H7.22576C7.22576 14.0924 7.3685 13.7476 7.62254 13.4936C7.87657 13.2396 8.22135 13.0968 8.58057 13.0968V12.1936C7.98197 12.1944 7.40798 12.4325 6.9846 12.8557C6.56142 13.2791 6.32334 13.8531 6.32251 14.4517L6.32254 14.4516Z" fill="#DC0505"/>
</svg>
