<svg width="26" height="25" viewBox="0 0 26 25" fill="none" xmlns="http://www.w3.org/2000/svg">
<path d="M24.7059 23.2326L18.5798 17.1117C20.1144 15.2394 20.956 12.8964 20.956 10.4767C20.956 4.69863 16.2546 0 10.4793 0C9.06733 0 7.69638 0.27624 6.4047 0.823593C5.15647 1.35304 4.03616 2.1076 3.07445 3.06936C2.11275 4.03111 1.35561 5.15142 0.826165 6.3996C0.278803 7.69128 0 9.06228 0 10.4742C0 16.2523 4.70143 20.9509 10.4767 20.9509C12.899 20.9509 15.2394 20.1094 17.1117 18.5747L23.2326 24.6956C23.4296 24.8926 23.6905 25 23.9667 25C24.2455 25 24.5064 24.8926 24.7008 24.6956C25.11 24.2941 25.11 23.6367 24.7059 23.2326L24.7059 23.2326ZM18.8819 10.4744C18.8819 15.1091 15.1118 18.8768 10.4795 18.8768C5.84475 18.8768 2.07706 15.1067 2.07706 10.4744C2.07706 5.84213 5.84723 2.07196 10.4795 2.07196C15.1118 2.07196 18.8819 5.84213 18.8819 10.4744Z" fill="white"/>
</svg>
